<?xml version="1.0" standalone="no"?>
<!DOCTYPE svg PUBLIC "-//W3C//DTD SVG 20010904//EN"
 "http://www.w3.org/TR/2001/REC-SVG-20010904/DTD/svg10.dtd">
<svg version="1.0" xmlns="http://www.w3.org/2000/svg"
 width="128.000000pt" height="128.000000pt" viewBox="0 0 128.000000 128.000000"
 preserveAspectRatio="xMidYMid meet">

<g transform="translate(0.000000,128.000000) scale(0.100000,-0.100000)"
fill="#000000" stroke="none">
<path d="M385 997 c-173 -58 -276 -207 -262 -378 14 -169 141 -301 316 -330
72 -11 203 3 248 26 15 8 33 15 40 15 34 0 83 80 69 115 -4 10 2 16 17 17 12
1 31 2 42 3 11 1 33 -5 48 -12 16 -8 31 -12 35 -9 3 3 0 6 -7 6 -7 0 -9 5 -6
10 3 6 1 10 -5 10 -19 0 -70 40 -70 54 0 8 30 20 78 31 83 19 121 35 140 58
27 32 -11 62 -133 108 -30 11 -55 24 -55 28 0 5 49 12 109 16 162 10 179 34
74 102 -65 41 -187 93 -278 119 -81 22 -344 29 -400 11z m85 -28 c-25 -4 -56
-8 -70 -8 -23 0 -23 1 -5 9 11 5 43 8 70 8 l50 -1 -45 -8z m-32 -171 c31 -38
18 -129 -20 -136 -23 -4 -41 54 -29 95 16 55 28 65 49 41z m-218 -54 c0 -34
-19 -76 -30 -69 -11 7 -14 84 -3 111 6 16 7 16 20 -2 7 -10 13 -28 13 -40z"/>
<path d="M361 199 c-51 -10 -61 -17 -41 -29 52 -32 458 -32 510 0 20 13 11 18
-50 30 -63 12 -357 11 -419 -1z"/>
</g>
</svg>
